<?xml version="1.0" encoding="utf-8"?>
<!-- Generator: Adobe Illustrator 19.2.0, SVG Export Plug-In . SVG Version: 6.00 Build 0)  -->
<svg version="1.1" id="Laag_1" xmlns="http://www.w3.org/2000/svg" xmlns:xlink="http://www.w3.org/1999/xlink" x="0px" y="0px"
	 viewBox="0 0 512 278.3" style="enable-background:new 0 0 512 278.3;" xml:space="preserve">
<style type="text/css">
	.st0{fill:#FFFFFF;}
</style>
<path class="st0" d="M0,140.1c1.1-2,2.3-3.9,3.2-6C22.1,90.7,41,47.2,59.9,3.8c0.5-1.1,0.9-2.1,1.7-3.8C89.4,12.1,117,24.1,145,36.2
	c-1,4.9-2.3,9.6-2.8,14.3c-0.2,1.7,0.9,4.1,2.2,5.1c2.5,2.1,5.6,3.6,8.5,5.2c5.5,3,11,3.1,16.8,0.8c17.1-6.8,34.1-13.8,51.5-19.8
	c5-1.7,11.1-1,16.7-0.5c15.6,1.3,31.1,3.5,46.7,4.4c10.2,0.6,17.7,5,22.2,13.7c4.8,9.3,12.5,15.4,20.7,21.2c1.5,1,4.3,1.5,5.9,0.8
	c10.2-4.3,20.3-8.9,30.7-13.6c-1.9-7.1-3.5-13.3-5.3-19.9c26.6-14.3,53.1-28.5,80-42.9c1.1,1.8,2.1,3.5,3,5.2
	c22.4,41.8,44.8,83.6,67.2,125.3c0.8,1.6,1.9,3,2.9,4.5c0,0.3,0,0.7,0,1c-26.5,14.2-53.1,28.4-80.1,42.9c-3.7-4.2-7.3-8.4-10.8-12.4
	c-8.9,4.9-17.5,9.7-26.5,14.6c1.4,6.1,3.2,13.1,4.6,20.2c0.5,2.4,0.3,5-0.1,7.4c-1.6,11.6-11.7,18.1-23.1,14.7
	c-4.1-1.2-7.9-3.4-12.4-5.4c-1.1,7.1-1.9,14.3-8.5,19.2c-7.4,5.5-13.8,1.8-20.2-1.6c-8.4,22-21.3,24.6-35.3,13.9
	c0.6,12-4.7,20.4-15.8,23c-11.9,2.8-20.4-3.4-25.8-13.3c-8.7,3.1-17,6.2-25.3,9c-1.9,0.6-3.9,0.9-5.9,1
	c-12.8,1.1-17.9-3.6-17.8-16.4c0-0.5-0.2-0.9-0.1-0.3c-6.9-0.8-13.4-0.9-19.8-2.3c-8-1.8-9.3-8.6-9.5-16c-6.8-0.5-14.1,1-18.8-5.7
	c-3.9-5.7-6.5-11.6-4.7-19.1c-10.5-0.5-17.9-4.4-20.5-14.8c-2.4-9.4,2-17.1,5.4-24.9c-13.8-4.5-27.4-8.9-40.9-13.4
	c-1.5-0.5-2.8-1.4-4.2-2.2c0.6-0.7,1.3-1.4,1.8-2.2c16.4-26.7,28.3-55.5,37.1-85.5c1.3-4.5,2.7-9,4.1-13.6c-1.7,1.7-2.4,3.6-3,5.6
	c-8.8,27.3-18.2,54.4-32,79.7c-2.9,5.2-5.4,10.6-8.2,15.8c-3.9,6.2-7.8,12.4-11.8,18.9c-2.3-0.9-3.9-1.4-5.6-2.2
	c-24.6-10.7-49.2-21.4-73.9-32.1c-1.5-0.6-3.1-1-4.6-1.5C0,141.5,0,140.8,0,140.1z M312.2,198c-3.7-5.1-7-10.4-11.1-15.1
	c-3.1-3.6-7.6-4.4-12.4-3c-9,2.6-12.7,8.7-11.3,18.2c1.9,12.8,6.7,24.6,12,36.3c0.8,1.8,1.1,3.8,1.8,5.6c0.8,2.1,1.7,4.1,2.6,6.2
	c0.6-0.3,1.2-0.6,1.8-0.8c-1.4-3.3-2.7-6.5-4.2-9.8c-5.5-12.5-10.8-25-12.3-38.8c-0.9-7.8,1.1-11.4,7.3-14.2
	c6.4-2.9,11-2.1,16.1,3.6c3.4,3.8,6.2,8.1,9.3,12.2c6.1,11.1,12.3,22.2,18.4,33.4c-3.2-8.5-7.5-16.6-10.7-25
	c-2.6-6.7-4.9-13.9-5.4-21c-0.8-10.2,10.1-16.8,19.1-11.7c4.4,2.5,8.1,6.8,11.4,10.8c3,3.6,5.2,8,7.8,12c0.4-0.3,0.9-0.6,1.3-0.9
	c-4.6-6.4-8.8-13.2-13.9-19.1c-5.8-6.6-13-7.8-19.3-4.5c-7,3.6-9.8,10.3-8,19.1c0.5,2.4,1.1,4.8,1.7,7.9
	C313,198.5,312.6,198.2,312.2,198z M282.5,90.8c2.1,1.9,4.3,3.7,6.3,5.7c8.6,9.1,19,13.1,31.5,11.6c10.3-1.3,18.9-5.2,23.7-15
	c0.6-1.1,0.3-3.8-0.6-4.4c-3.4-2.2-7.1-3.8-10.7-5.7c-0.2,0.3-0.3,0.5-0.5,0.8c3.3,2.3,6.6,4.6,10,6.9c-3.8,8.5-10.9,11.6-19,13.3
	c-17.5,3.8-30.1-4.9-41.2-16.8c-3.2,3-8.7,2.7-13.7-0.1c-0.8,1.1-1.3,2.7-2.2,3c-9.2,3.4-18.3,7.1-27.6,9.8
	c-7.1,2.1-14.4,3-22.9,4.7c2.8,0.4,4.3,0.6,6,0.8c-0.5,0.6-0.6,1-0.9,1.1c-10.9,5.2-20.9,11.6-29.4,20.3c-0.7,0.7-1.6,1.3-2.5,1.5
	c-10.4,2.1-20.6,3.3-28.7-5.8c-1-1.1-2.3-2.1-3.4-3.1c6.4,12.3,16.6,15.4,29.8,11.3c0.2,0.7,0.4,1.3,0.5,2
	c-13.7,13.2-27.4,26.4-40.5,39.1c12-7.2,23.7-16.2,33.3-27.6c12-14.1,24.8-27.4,41.6-36c2.5-1.3,5.1-2.7,7.8-2.9
	c11.6-1.1,22.3-5.1,32.5-10.6c4.7-2.5,8.9-5.5,14.7-3.7C278.4,91.6,280.7,90.9,282.5,90.8z M410.9,153.6c-17.8-26.9-33.3-55-45.3-85
	C375.9,99.6,391.4,127.7,410.9,153.6z M285.1,234.3c0.4-0.3,0.8-0.7,1.2-1c-4.2-6.7-8.2-13.6-12.8-19.9c-3.2-4.4-8.3-5.6-13.5-3.8
	c-5.1,1.7-8.3,5.6-9,11c-2,13.7,2.3,26.4,6.6,39.1c-0.4-3.4-1.3-6.7-2-10c-2-9.6-4.8-19.1-2.8-29c1-5,3.7-8.5,8.9-9.6
	c5.3-1.1,9.5,1,12.5,5.2c1.5,2,2.6,4.3,3.8,6.4C280.4,226.4,282.8,230.4,285.1,234.3z M378.4,177.6c-4.5-6-9.6-8.1-14.6-6.6
	c-6,1.7-10.1,7.4-10.1,14.5c0,12.8,6.1,23.7,11.4,34.8c-2.2-7.2-5.4-14.1-7.3-21.4c-1.4-5.6-2.4-11.9-1.6-17.5
	c1.2-8.4,10.1-11.6,17.3-7.1C374.9,175.2,376.2,176.1,378.4,177.6z M157.4,213.1c0.2,0.5,0.4,1,0.7,1.5c9.5-4.5,19-9,28.9-13.7
	C174.9,200.6,167,208.9,157.4,213.1z M203.6,229.2c-3.6-2.3-17.1,2.2-24.3,9.7C188.4,235.3,196.3,232.1,203.6,229.2z M203.4,208.5
	c5.8,6,12.1,8.9,20.4,7.1C216.9,213.2,210.4,210.9,203.4,208.5z M226.2,235.6c5.9,4.3,11.4,4,19-1.2
	C239,234.8,232.3,235.2,226.2,235.6z M183.7,184.2c3.8,7.3,10.9,10.6,15.3,7.8C194.3,189.6,188.9,186.9,183.7,184.2z M209.4,255.7
	c6.2-1.7,11.1-3,15.7-4.2C221.3,248.5,217.2,249.3,209.4,255.7z"/>
</svg>
