<?xml version="1.0" encoding="utf-8"?>
<!-- Generator: Adobe Illustrator 19.2.0, SVG Export Plug-In . SVG Version: 6.00 Build 0)  -->
<svg version="1.1" id="Laag_1" xmlns="http://www.w3.org/2000/svg" xmlns:xlink="http://www.w3.org/1999/xlink" x="0px" y="0px"
	 viewBox="0 0 461.4 240.4" style="enable-background:new 0 0 461.4 240.4;" xml:space="preserve">
<style type="text/css">
	.st0{fill:#FFFFFF;}
</style>
<path class="st0" d="M0,120.6c43.7-23.2,87.5-46.3,131.2-69.5c31.3-16.6,62.5-33.4,93.9-49.8c3-1.6,8.3-1.8,11.2-0.3
	c73.3,38.7,146.4,77.8,219.5,116.8c1.5,0.8,3,1.8,5.7,3.5c-12.4,6.8-23.7,13.3-35.2,19.3c-5.1,2.6-7.7,5.7-7.2,11.8
	c0.6,7.5,0.1,15,0.2,22.5c0,6.7-0.7,13.1,5.1,19c2.2,2.3,0.8,10.5-1.7,14.3c-3.2,4.8-10.3,5.6-14.3,1.2c-3-3.3-5.8-11.7-4.1-13.6
	c8.5-9.5,5-20.3,5.7-30.7c0.3-4.4,0-8.9,0-15.3c-13.6,8.3-25.9,15.6-37.8,23.4c-1.6,1.1-2.1,4.7-2.1,7.2c-0.3,9.3-0.7,18.7,0,27.9
	c0.5,6.1-1.5,10.2-6.8,12.2c-10.6,4-21.2,8.8-32.3,10.8c-68.4,12.1-136.9,12.3-205.2-1.1c-9.8-1.9-19.3-6.3-28.4-10.7
	c-2.8-1.3-4.8-6.5-5.1-10c-0.9-11.6,2.9-25.4-2.2-34.4c-4.9-8.6-18.4-12.4-28.3-18.1c-18.9-11-37.9-22-56.9-32.9
	c-1.5-0.8-3.3-1.1-4.9-1.6C0,121.8,0,121.2,0,120.6z M355,214c0-1.2,0.1-2.3,0.1-3.5c-3.6-1.8-7.1-4.2-10.9-5.2
	c-8.7-2.2-17.5-4.3-26.4-5.4c-45.4-5.6-91.1-6.5-136.7-3.4c-19.7,1.3-39.3,4.5-58.9,7.6c-5.4,0.8-10.4,4.2-17.2,7.1
	c10.7,9.6,21.7,10.5,32.1,12.1c46.8,7,94,7.1,141.2,4.7c21.2-1.1,42.2-5.1,63.3-8.3C346.2,219,350.5,216,355,214z M365.2,146.6
	c0.8-0.4,1.7-0.7,2.5-1.1c-1.6-3.5-2.6-7.6-5.1-10.2c-3.9-4.1-8.6-7.5-13.4-10.5c-19.8-12-41.7-17.9-64.4-21.3
	c-47.5-7.3-94.7-6.6-140.7,8c-15.4,4.9-29.3,14.4-43.4,22.7c-3.1,1.8-4.1,7.3-6.1,11.2c15-7,28-14.8,42-19.3
	c46.9-15.2,95.1-15.2,143.5-9.9C310.6,119.6,340.2,126.6,365.2,146.6z"/>
</svg>
