<?xml version="1.0" encoding="utf-8"?>
<!-- Generator: Adobe Illustrator 18.1.1, SVG Export Plug-In . SVG Version: 6.00 Build 0)  -->
<svg version="1.1" id="Laag_1" xmlns="http://www.w3.org/2000/svg" xmlns:xlink="http://www.w3.org/1999/xlink" x="0px" y="0px"
	 viewBox="0 0 244.6 304.3" enable-background="new 0 0 244.6 304.3" xml:space="preserve">
<path fill="#FFFFFF" d="M133.2,15.7c61.7,0,111.5,49.8,111.4,111.7c-0.1,61.9-50.7,112-113,111.2c-60.4-0.8-109.9-49.9-110-111.5
	C21.6,65.5,71.5,15.7,133.2,15.7z M35.9,127c0.3,54.7,44.3,96.4,95.6,97.2c53.8,0.8,97.8-42.3,98.7-95.5
	c0.9-54.1-42.9-98.8-97.1-98.8C79.7,30,35.9,73.7,35.9,127z"/>
<path fill="#FFFFFF" d="M140.6,262.3c0,6.9,0,13.6,0,20.6c5.9,0.8,11.7,1.6,17.6,2.4c13.3,1.8,26.6,3,39.4,7.4
	c3.2,1.1,6.2,2.8,9,4.6c2.3,1.5,3.7,3.8,3.5,6.9c-50.4,0-100.8,0-151.2,0c-0.7-3.2,0.8-5.4,3.1-7.2c4.5-3.5,9.9-5.3,15.4-6.3
	c11.1-2,22.2-3.7,33.4-5.4c5.8-0.9,11.6-1.6,17.4-2.4c0.1-0.8,0.2-1.5,0.2-2.1c0-5.4,0-10.7,0-16.1c0-1.6-0.3-2.3-2.1-2.4
	c-17.2-1.2-33.6-5.4-49.1-13.1c-38-19-63.1-48.7-73.7-90c-6.2-24.2-4-48.4,3.6-72C19.5,48.6,44.2,20.5,81.4,3.5c2.6-1.2,5.2-2.2,8-3
	c1.7-0.5,3.6-0.7,5.3-0.4c3.3,0.5,5.4,3.1,5.6,6.2c0.1,2.9-1.5,5-4.8,6.2c-4.9,1.8-9.9,3.3-14.5,5.6c-19.9,10-35.1,25.1-47.6,43.2
	c-11.2,16.3-18.3,34.4-20.3,54.1c-3.2,32.2,4.9,61.4,24.7,87c20.6,26.6,47.8,42.2,81.1,46.7c24.3,3.3,47.5-1.1,69.5-11.8
	c11.1-5.4,21.9-11.4,31.4-19.3c2.3-1.9,4.6-2,6.7-0.6c2.2,1.4,3.6,4.3,2.4,6.8c-1,2.2-2.5,4.5-4.4,5.9c-22.6,15.8-47,27.5-74.7,31.2
	C146.9,261.8,143.8,262,140.6,262.3z"/>
<g>
	<path fill="#FFFFFF" d="M132.3,89.6c-4-2.1-28-13.1-58-14.1v103.8c0,0,15,2.5,58-10.1V89.6z"/>
	<path fill="#FFFFFF" d="M134.3,89.6v79.7c43,12.6,58,10.1,58,10.1V75.5C161.3,76.4,138.3,87.5,134.3,89.6z"/>
</g>
</svg>
